<svg width="78" height="87" viewBox="0 0 78 87" fill="none" xmlns="http://www.w3.org/2000/svg">
<path d="M38.505 49.935C38.505 49.935 36.6 54.78 35.56 56.605C34.74 58.045 31.425 58.435 29.4 58.955C27.64 59.405 25.36 59.395 25.14 60.385C24.92 61.38 25.67 61.905 27.45 61.97C29.235 62.035 42.135 61.97 43.04 61.97C43.945 61.97 44.6 60.815 42.74 59.54C41.105 58.42 40.475 58.325 41.135 56.875C41.795 55.42 44.86 50.675 44.86 50.675L38.505 49.935Z" fill="#E8A631"/>
<path d="M23.3 10.495C23.3 10.495 24.37 11.94 24.27 13.26C24.205 14.11 24.27 15.415 20.16 17.11C15.18 19.165 12.685 21.38 12.72 25.28C12.77 30.755 16.06 33.575 17.52 34.665C18.98 35.755 18.245 38.82 21.98 42.445C27.33 47.64 30.305 46.97 33.075 48.205C34.12 48.67 34.255 48.695 35.52 50.465C36.495 51.83 38.64 54.005 41.575 54.005C45.35 54.005 45.925 50.825 47.4 50.135C48.875 49.445 59.44 48.55 60.64 39.805C61.58 32.955 53.9 22.24 41.415 19.48C35.81 18.24 32.24 19.825 30.335 20.3C29.875 20.415 28.74 20.88 28.74 20.88C28.385 19.955 30.01 19.075 31.175 18.015C32.515 16.795 34.035 15.475 34.77 14.17C38.485 7.535 32.97 0.465001 26.35 2.295C23.99 2.945 23.3 10.495 23.3 10.495Z" fill="#78A3AD"/>
<path d="M52.815 25.065C52.815 25.065 52.01 21.94 54.34 20.485C56.025 19.425 57.88 19.575 59.08 20.8C59.715 20.255 60.395 19.71 61.205 19.505C63.49 18.915 65.915 19.505 67.06 21.665C68.615 24.595 67.255 26.13 65.385 27.91C65.385 27.91 67.64 28.925 67.725 32.55C67.8 35.76 66.615 39.08 62.04 40.375C60.26 40.88 55.08 41.235 53.105 37.51C52.155 35.715 52.975 34.65 53.38 34.14C54.755 32.405 56.95 33.3 56.95 33.3C57.14 28.16 52.815 25.065 52.815 25.065Z" fill="#E0E0E0"/>
<path d="M63.68 33.195C63.68 29.88 60.32 29.905 60.32 29.905C60.32 29.905 62.865 30.76 61.59 33.2C60.91 34.505 58.87 34.085 57.89 33.075C57.365 32.535 56.725 30.95 56.725 30.95C56.725 30.95 56.95 32.375 56.95 33.285C56.95 33.285 54.755 32.385 53.38 34.125C53.31 34.21 53.23 34.32 53.145 34.44C54.81 32.885 56.505 34.16 57.445 35.235C58.61 36.57 60.055 36.625 61.13 36.39C62.385 36.115 63.68 35.17 63.68 33.195Z" fill="#BDBDBD"/>
<path d="M65.615 27.915C69.455 25.535 67.065 21.655 67.065 21.655C67.065 21.655 67.745 24.515 65.705 25.7C64.525 26.385 62.59 26.275 62.23 24.29C62 23.02 63.45 22.435 63.45 22.435C63.45 22.435 62.35 22.155 61.46 22.865C60.4 23.71 60.16 25.23 60.83 26.41C61.83 28.18 63.985 28.735 65.615 27.915Z" fill="#BDBDBD"/>
<path d="M43.4 39.78C44.145 38.29 45.77 35.97 44.175 32.38C43.905 31.77 43.375 31.59 43.35 32.2C43.325 32.81 43.71 34.155 43.71 34.97C43.71 35.69 43.775 36.565 43.315 37.14C43.19 37.295 41.985 36.9 40.445 34.45C40.335 34.27 39.985 33.72 39.705 33.94C39.65 33.98 39.4 34.405 39.975 35.76C40.685 37.43 42.635 38.165 41.915 40.825C41.83 41.14 39.985 40.36 38.535 38.165C38.22 37.685 37.975 37.325 37.62 37.405C37.26 37.48 37.555 38.485 37.775 39.005C38.42 40.54 39.355 41.25 40.29 41.81C42.22 42.96 42.52 44.09 42.465 44.275C42.41 44.46 39.92 45.32 37.39 43.12C34.09 40.25 34.275 35.635 34.195 34.32C34.09 32.525 34.215 31.05 32.765 29.635C31.985 28.875 30.79 28.89 30.465 28.965C30.32 29 30.1 29.175 30.1 29.4C30.1 29.555 30.205 29.79 30.525 29.885C32.01 30.335 32.64 30.95 32.65 34.41C32.685 44.04 38.195 45.89 41.045 46.005C42.805 46.075 44.245 45.225 44.34 44.85C44.435 44.48 43.85 43.82 43.575 43.06C42.77 40.9 43.31 39.95 43.4 39.78Z" fill="#546E7A"/>
<path d="M17.355 3.54C19.53 4.355 21.235 4.775 22.69 4.415C23.945 4.1 25.59 1.73 26.95 2.725C27.385 3.04 27.755 3.435 28.05 3.885C28.96 5.27 29.39 6.615 29.245 8.64C29.2 9.275 28.38 13.55 25.55 13.76C24.53 13.835 23.56 13.315 22.805 12.625C22.05 11.935 21.39 11.275 20.1 10.48C18.325 9.385 16.645 9.23 14.69 8.5L17.355 3.54Z" fill="#E0E0E0"/>
<path d="M14.665 2.695C15.615 2.41 17.16 2.58 18.225 3.765C20.885 6.74 18.03 9.425 16.475 9.49C14.39 9.58 14.145 8.98 12.975 8.595C12.055 8.295 11.4 8.745 10.76 9.12C10.425 9.315 9.98501 9.02 10.085 8.645C11.19 4.635 12.77 3.26 14.665 2.695Z" fill="#E8A631"/>
<path d="M26.3108 7.45644C26.741 6.86449 26.7258 6.12008 26.2768 5.79376C25.8278 5.46744 25.1151 5.68278 24.6849 6.27474C24.2546 6.86669 24.2699 7.61109 24.7189 7.93741C25.1678 8.26373 25.8806 8.04839 26.3108 7.45644Z" fill="#212121"/>
<path d="M22.6 8.99C21.745 8.675 18.15 7.77 15.585 7.62C13.335 7.49 11.85 8.535 11.785 8.56C11.71 8.59 11.65 8.635 11.6 8.685C11.98 8.54 12.4 8.47 12.91 8.58C13.505 8.4 14.4 8.215 15.49 8.29C18.07 8.465 23.365 10.02 23.42 10.035C23.46 10.045 24.275 10.365 24.22 10.085C24.225 10.09 24.215 9.585 22.6 8.99Z" fill="#424242"/>
<path d="M5.08 84.8C5.08 84.64 5.09333 84.52 5.12 84.44C5.16 84.3467 5.24667 84.3 5.38 84.3C5.5 84.3 5.63333 84.3267 5.78 84.38C5.94 84.4333 6.09333 84.4933 6.24 84.56C6.61333 84.72 6.94667 84.84 7.24 84.92C7.54667 85 7.92667 85.04 8.38 85.04C10.0333 85.04 11.2733 84.6467 12.1 83.86C12.94 83.0733 13.36 82.0467 13.36 80.78C13.36 79.6467 13.04 78.6533 12.4 77.8C11.76 76.9333 10.9467 76.2533 9.96 75.76C8.98667 75.2667 7.99333 74.9733 6.98 74.88L8.12 83.34C8.12 83.5667 8.08667 83.7533 8.02 83.9C7.96667 84.0467 7.83333 84.12 7.62 84.12C7.56667 84.1467 7.46667 83.7867 7.32 83.04C7.17333 82.2933 6.97333 81.1933 6.72 79.74C6.42667 78.0467 6.2 76.7933 6.04 75.98C5.88 75.1533 5.75333 74.68 5.66 74.56C4.55333 74.56 3.64667 74.62 2.94 74.74C2.23333 74.8467 1.69333 74.9733 1.32 75.12C0.946667 75.2667 0.793333 75.34 0.86 75.34C0.793333 75.3133 0.746667 75.2733 0.72 75.22C0.693333 75.1533 0.673333 75.06 0.66 74.94C0.633333 74.82 0.613333 74.7333 0.6 74.68C0.6 74.36 0.886667 74.1067 1.46 73.92C2.03333 73.7333 2.63333 73.6067 3.26 73.54C3.9 73.4733 4.32667 73.44 4.54 73.44C5.96667 73.44 7.45333 73.7333 9 74.32C10.5467 74.8933 11.8467 75.74 12.9 76.86C13.9533 77.98 14.48 79.3067 14.48 80.84C14.48 81.9867 14.1933 82.9667 13.62 83.78C13.0467 84.58 12.2933 85.1867 11.36 85.6C10.44 86.0133 9.45333 86.22 8.4 86.22C7.54667 86.22 6.78 86.0867 6.1 85.82C5.42 85.5533 5.08 85.2133 5.08 84.8ZM20.6275 86.02C19.8408 86.02 19.1275 85.8467 18.4875 85.5C17.8608 85.14 17.3675 84.6467 17.0075 84.02C16.6608 83.38 16.4875 82.6533 16.4875 81.84C16.4875 80.5067 16.9742 79.5133 17.9475 78.86C18.9342 78.2067 20.1408 77.88 21.5675 77.88C22.2208 77.88 22.8275 78.04 23.3875 78.36C23.9608 78.68 24.4208 79.14 24.7675 79.74C25.1142 80.34 25.2875 81.0333 25.2875 81.82C25.2875 82.6733 25.0675 83.42 24.6275 84.06C24.1875 84.6867 23.6075 85.1733 22.8875 85.52C22.1808 85.8533 21.4275 86.02 20.6275 86.02ZM20.4075 84.88C21.6475 84.88 22.5875 84.6 23.2275 84.04C23.8675 83.48 24.1875 82.66 24.1875 81.58C24.1875 80.8467 23.9342 80.2133 23.4275 79.68C22.9342 79.1467 22.2408 78.88 21.3475 78.88C20.7475 78.88 20.1408 78.9933 19.5275 79.22C18.9142 79.4467 18.4075 79.7867 18.0075 80.24C17.6075 80.6933 17.4075 81.24 17.4075 81.88C17.4075 82.4133 17.5408 82.9133 17.8075 83.38C18.0742 83.8333 18.4342 84.2 18.8875 84.48C19.3542 84.7467 19.8608 84.88 20.4075 84.88ZM30.2981 85.98C29.6715 85.98 29.1248 85.7667 28.6581 85.34C28.2048 84.9133 27.8581 84.36 27.6181 83.68C27.3915 83 27.2781 82.2933 27.2781 81.56C27.2781 80.28 27.5448 79.2 28.0781 78.32C28.6248 77.44 29.4515 77 30.5581 77C31.2248 77 31.8048 77.12 32.2981 77.36C32.8048 77.5867 33.4648 77.9733 34.2781 78.52L34.7981 78.88C34.7315 78.44 34.6315 77.9333 34.4981 77.36C34.3648 76.7867 34.2781 76.3933 34.2381 76.18C34.0115 75.14 33.8448 74.3667 33.7381 73.86C33.6448 73.34 33.5981 72.88 33.5981 72.48C33.5981 71.7733 33.7981 71.42 34.1981 71.42C34.3448 71.74 34.5181 72.4267 34.7181 73.48C34.9181 74.52 35.1715 75.9467 35.4781 77.76C35.7981 79.68 36.0781 81.2467 36.3181 82.46C36.5581 83.6733 36.7581 84.4333 36.9181 84.74C36.9181 85.0467 36.6915 85.2 36.2381 85.2C35.8915 85.2 35.6515 85 35.5181 84.6C35.3981 84.2 35.3248 83.5 35.2981 82.5H35.1381C34.5781 83.5133 33.8515 84.3467 32.9581 85C32.0648 85.6533 31.1781 85.98 30.2981 85.98ZM30.5581 85C31.1048 85 31.6915 84.7733 32.3181 84.32C32.9581 83.8533 33.4981 83.2933 33.9381 82.64C34.3781 81.9733 34.5981 81.3733 34.5981 80.84V80.24C33.2248 78.8 31.9581 78.08 30.7981 78.08C29.9848 78.08 29.3581 78.38 28.9181 78.98C28.4781 79.5667 28.2581 80.34 28.2581 81.3L28.2781 81.72C28.3581 82.7333 28.5848 83.5333 28.9581 84.12C29.3315 84.7067 29.8648 85 30.5581 85ZM42.2486 86.02C41.4619 86.02 40.7486 85.8467 40.1086 85.5C39.4819 85.14 38.9886 84.6467 38.6286 84.02C38.2819 83.38 38.1086 82.6533 38.1086 81.84C38.1086 80.5067 38.5953 79.5133 39.5686 78.86C40.5553 78.2067 41.7619 77.88 43.1886 77.88C43.8419 77.88 44.4486 78.04 45.0086 78.36C45.5819 78.68 46.0419 79.14 46.3886 79.74C46.7353 80.34 46.9086 81.0333 46.9086 81.82C46.9086 82.6733 46.6886 83.42 46.2486 84.06C45.8086 84.6867 45.2286 85.1733 44.5086 85.52C43.8019 85.8533 43.0486 86.02 42.2486 86.02ZM42.0286 84.88C43.2686 84.88 44.2086 84.6 44.8486 84.04C45.4886 83.48 45.8086 82.66 45.8086 81.58C45.8086 80.8467 45.5553 80.2133 45.0486 79.68C44.5553 79.1467 43.8619 78.88 42.9686 78.88C42.3686 78.88 41.7619 78.9933 41.1486 79.22C40.5353 79.4467 40.0286 79.7867 39.6286 80.24C39.2286 80.6933 39.0286 81.24 39.0286 81.88C39.0286 82.4133 39.1619 82.9133 39.4286 83.38C39.6953 83.8333 40.0553 84.2 40.5086 84.48C40.9753 84.7467 41.4819 84.88 42.0286 84.88ZM54.5992 85.86C54.3059 84.4067 54.0792 82.6867 53.9192 80.7C53.7726 78.7 53.6992 76.7667 53.6992 74.9C53.6992 73.9667 53.7192 73.14 53.7592 72.42C53.7592 72.2467 53.8926 72.16 54.1592 72.16C54.3726 72.16 54.5059 72.2133 54.5592 72.32C54.6259 72.4267 54.6592 72.5933 54.6592 72.82C54.6592 74.98 54.6992 76.8267 54.7792 78.36C54.8592 79.88 54.9659 81.52 55.0992 83.28C55.1792 84.4133 55.2326 85.18 55.2592 85.58C55.2726 85.7933 55.1592 85.9 54.9192 85.9C54.8392 85.9 54.7326 85.8867 54.5992 85.86ZM58.1986 86.02C57.8919 86.02 57.6453 85.5733 57.4586 84.68C57.2719 83.7733 57.1519 82.9933 57.0986 82.34C57.0453 81.6867 56.9719 80.6533 56.8786 79.24C56.8653 79.0133 56.8586 78.72 56.8586 78.36C56.8586 77.9067 56.8919 77.5933 56.9586 77.42C57.0386 77.2467 57.1653 77.16 57.3386 77.16C57.4853 77.16 57.5986 77.1933 57.6786 77.26C57.7719 77.3133 57.8519 77.4067 57.9186 77.54L57.8986 78.34C57.8986 79.1933 57.9386 80 58.0186 80.76C58.1119 81.52 58.2519 82.54 58.4386 83.82C58.5453 84.38 58.6186 84.84 58.6586 85.2C58.6853 85.3867 58.6519 85.5733 58.5586 85.76C58.4653 85.9333 58.3453 86.02 58.1986 86.02ZM57.6986 75.02C57.4053 75.02 57.1853 74.9067 57.0386 74.68C56.9053 74.4533 56.8386 74.1733 56.8386 73.84C56.8386 73.6933 56.8453 73.5867 56.8586 73.52C56.8453 73.3067 56.9653 73.2 57.2186 73.2C57.4053 73.2 57.5919 73.2467 57.7786 73.34C57.9786 73.42 58.0386 73.48 57.9586 73.52C58.0919 73.8667 58.1586 74.14 58.1586 74.34C58.1586 74.5133 58.1186 74.6533 58.0386 74.76C57.9586 74.8533 57.8453 74.94 57.6986 75.02ZM60.5523 83.64C60.739 83.4933 60.919 83.42 61.0923 83.42C61.2523 83.42 61.4057 83.4667 61.5523 83.56C61.7123 83.6533 61.8723 83.7733 62.0323 83.92C62.1923 84.0533 62.319 84.1533 62.4123 84.22C62.719 84.46 63.139 84.6467 63.6723 84.78C64.2057 84.9133 64.7723 84.98 65.3723 84.98C66.0523 84.98 66.659 84.8533 67.1923 84.6C67.739 84.3333 68.0123 83.98 68.0123 83.54C68.0123 83.14 67.8657 82.8267 67.5723 82.6C67.279 82.36 66.9257 82.1867 66.5123 82.08C66.099 81.9733 65.5523 81.8733 64.8723 81.78C63.9523 81.6733 63.219 81.54 62.6723 81.38C62.139 81.22 61.7123 80.96 61.3923 80.6C61.0723 80.2267 60.9123 79.7067 60.9123 79.04C60.9123 78.32 61.2523 77.7867 61.9323 77.44C62.6123 77.08 63.3923 76.9 64.2723 76.9C65.0723 76.9 65.7523 77.0733 66.3123 77.42C66.8857 77.7533 67.179 78.2333 67.1923 78.86C67.219 79.22 67.1657 79.5067 67.0323 79.72C66.899 79.92 66.739 80.02 66.5523 80.02C66.4457 80.02 66.3523 79.98 66.2723 79.9C66.2057 79.82 66.1723 79.7133 66.1723 79.58C66.1723 79.3667 66.2457 79.1333 66.3923 78.88C66.3257 78.56 66.1057 78.32 65.7323 78.16C65.3723 78 64.939 77.92 64.4323 77.92C63.6857 77.92 63.0923 78.06 62.6523 78.34C62.2123 78.6067 61.9923 78.9267 61.9923 79.3C61.9923 79.7 62.1523 80.0067 62.4723 80.22C62.7923 80.4333 63.179 80.5867 63.6323 80.68C64.099 80.76 64.759 80.84 65.6123 80.92C66.319 81.0133 66.8923 81.1267 67.3323 81.26C67.7857 81.3933 68.1657 81.6533 68.4723 82.04C68.779 82.4133 68.9323 82.9533 68.9323 83.66C68.9323 84.3933 68.5923 84.9733 67.9123 85.4C67.2323 85.8133 66.419 86.02 65.4723 86.02C64.259 86.02 63.1723 85.8133 62.2123 85.4C61.2657 84.9867 60.7123 84.4 60.5523 83.64ZM73.8481 86C73.7148 86.0267 73.6281 86.04 73.5881 86.04C73.1748 86.04 72.8881 85.7333 72.7281 85.12C72.5815 84.5067 72.5081 83.6467 72.5081 82.54C72.5081 82.0867 72.5215 81.38 72.5481 80.42C72.5748 79.8333 72.5881 79.3933 72.5881 79.1C70.9481 79.1 70.1281 78.9133 70.1281 78.54C70.1281 78.42 70.1415 78.3267 70.1681 78.26C70.2081 78.1933 70.2881 78.16 70.4081 78.16L72.5881 78.02C72.5748 77.3667 72.5415 76.6533 72.4881 75.88C72.4348 75.1867 72.4015 74.5467 72.3881 73.96C72.3881 73.8133 72.4481 73.7133 72.5681 73.66C72.6881 73.5933 72.8148 73.56 72.9481 73.56C73.1081 73.56 73.2415 73.6467 73.3481 73.82C73.4548 73.98 73.5081 74.1467 73.5081 74.32L73.6481 77.98L75.3081 78.06C75.5615 78.0333 75.7748 78.08 75.9481 78.2C76.1348 78.32 76.2348 78.52 76.2481 78.8C75.9681 78.92 75.6615 78.9933 75.3281 79.02C74.9948 79.0467 74.4348 79.06 73.6481 79.06C73.6481 80.3 73.7081 82.34 73.8281 85.18C73.8281 85.4733 73.8281 85.68 73.8281 85.8C73.8415 85.9067 73.8481 85.9733 73.8481 86Z" fill="#FFEED0"/>
</svg>
