<svg width="32" height="32" viewBox="0 0 32 32" fill="none" xmlns="http://www.w3.org/2000/svg">
<g clip-path="url(#clip0_127_3)">
<circle cx="16" cy="16" r="16" fill="#FFEED0"/>
<path d="M15.8298 22.1652C15.8298 22.1652 15.175 23.8306 14.8175 24.458C14.5356 24.953 13.3961 25.087 12.7 25.2658C12.095 25.4205 11.3113 25.417 11.2356 25.7573C11.16 26.0994 11.4178 26.2798 12.0297 26.3022C12.6433 26.3245 17.0777 26.3022 17.3888 26.3022C17.6998 26.3022 17.925 25.9052 17.2856 25.4669C16.7236 25.0819 16.507 25.0492 16.7339 24.5508C16.9608 24.0506 18.0144 22.4195 18.0144 22.4195L15.8298 22.1652Z" fill="#E8A631"/>
<path d="M10.6031 8.60767C10.6031 8.60767 10.9709 9.10439 10.9366 9.55814C10.9142 9.85033 10.9366 10.2989 9.52375 10.8816C7.81187 11.588 6.95422 12.3494 6.96625 13.69C6.98344 15.572 8.11437 16.5414 8.61625 16.9161C9.11812 17.2908 8.86547 18.3444 10.1494 19.5905C11.9884 21.3763 13.0111 21.146 13.9633 21.5705C14.3225 21.7303 14.3689 21.7389 14.8037 22.3474C15.1389 22.8166 15.8762 23.5642 16.8852 23.5642C18.1828 23.5642 18.3805 22.4711 18.8875 22.2339C19.3945 21.9967 23.0262 21.6891 23.4387 18.683C23.7619 16.3283 21.1219 12.645 16.8302 11.6963C14.9034 11.27 13.6762 11.8149 13.0214 11.9781C12.8633 12.0177 12.4731 12.1775 12.4731 12.1775C12.3511 11.8595 12.9097 11.557 13.3102 11.1927C13.7708 10.7733 14.2933 10.3195 14.5459 9.87095C15.823 7.59017 13.9272 5.15986 11.6516 5.78892C10.8403 6.01236 10.6031 8.60767 10.6031 8.60767Z" fill="#78A3AD"/>
<path d="M20.7489 13.6161C20.7489 13.6161 20.4722 12.5418 21.2731 12.0417C21.8523 11.6773 22.49 11.7289 22.9025 12.15C23.1208 11.9626 23.3545 11.7753 23.633 11.7048C24.4184 11.502 25.252 11.7048 25.6456 12.4473C26.1802 13.4545 25.7127 13.9822 25.0698 14.594C25.0698 14.594 25.845 14.9429 25.8742 16.189C25.9 17.2925 25.4927 18.4337 23.92 18.8789C23.3081 19.0525 21.5275 19.1745 20.8486 17.894C20.522 17.277 20.8039 16.9109 20.9431 16.7356C21.4158 16.1392 22.1703 16.4468 22.1703 16.4468C22.2356 14.68 20.7489 13.6161 20.7489 13.6161Z" fill="#E0E0E0"/>
<path d="M24.4837 16.4107C24.4837 15.2712 23.3287 15.2798 23.3287 15.2798C23.3287 15.2798 24.2036 15.5737 23.7653 16.4124C23.5316 16.861 22.8303 16.7167 22.4934 16.3695C22.313 16.1838 22.093 15.639 22.093 15.639C22.093 15.639 22.1703 16.1288 22.1703 16.4417C22.1703 16.4417 21.4158 16.1323 20.9431 16.7304C20.9191 16.7596 20.8916 16.7974 20.8623 16.8387C21.4347 16.3042 22.0173 16.7424 22.3405 17.112C22.7409 17.5709 23.2377 17.5898 23.6072 17.509C24.0386 17.4145 24.4837 17.0896 24.4837 16.4107Z" fill="#BDBDBD"/>
<path d="M25.1489 14.5957C26.4689 13.7776 25.6473 12.4438 25.6473 12.4438C25.6473 12.4438 25.8811 13.427 25.1798 13.8343C24.7742 14.0698 24.1091 14.032 23.9853 13.3496C23.9063 12.9131 24.4047 12.712 24.4047 12.712C24.4047 12.712 24.0266 12.6157 23.7206 12.8598C23.3563 13.1503 23.2738 13.6728 23.5041 14.0784C23.8478 14.6868 24.5886 14.8776 25.1489 14.5957Z" fill="#BDBDBD"/>
<path d="M17.5125 18.6744C17.7686 18.1622 18.3272 17.3647 17.7789 16.1306C17.6861 15.9209 17.5039 15.859 17.4953 16.0687C17.4867 16.2784 17.6191 16.7408 17.6191 17.0209C17.6191 17.2684 17.6414 17.5692 17.4833 17.7669C17.4403 17.8201 17.0261 17.6844 16.4967 16.8422C16.4589 16.7803 16.3386 16.5912 16.2423 16.6669C16.2234 16.6806 16.1375 16.8267 16.3352 17.2925C16.5792 17.8665 17.2495 18.1192 17.002 19.0336C16.9728 19.1419 16.3386 18.8737 15.8402 18.1192C15.7319 17.9542 15.6477 17.8304 15.5256 17.8579C15.4019 17.8837 15.5033 18.2292 15.5789 18.4079C15.8006 18.9356 16.122 19.1797 16.4434 19.3722C17.1069 19.7675 17.21 20.1559 17.1911 20.2195C17.1722 20.2831 16.3162 20.5787 15.4466 19.8225C14.3122 18.8359 14.3758 17.2495 14.3483 16.7975C14.3122 16.1804 14.3552 15.6734 13.8567 15.187C13.5886 14.9258 13.1778 14.9309 13.0661 14.9567C13.0162 14.9687 12.9406 15.0289 12.9406 15.1062C12.9406 15.1595 12.9767 15.2403 13.0867 15.2729C13.5972 15.4276 13.8137 15.639 13.8172 16.8284C13.8292 20.1387 15.7233 20.7747 16.703 20.8142C17.308 20.8383 17.803 20.5461 17.8356 20.4172C17.8683 20.29 17.6672 20.0631 17.5727 19.8019C17.2959 19.0594 17.4816 18.7328 17.5125 18.6744Z" fill="#546E7A"/>
<path d="M8.55953 6.21686C9.30719 6.49701 9.89328 6.64139 10.3934 6.51764C10.8248 6.40936 11.3903 5.59467 11.8578 5.9367C12.0073 6.04498 12.1345 6.18076 12.2359 6.33545C12.5487 6.81155 12.6966 7.27389 12.6467 7.96998C12.6312 8.18826 12.3494 9.6578 11.3766 9.72998C11.0259 9.75576 10.6925 9.57701 10.433 9.33983C10.1734 9.10264 9.94656 8.87576 9.50312 8.60248C8.89297 8.22608 8.31547 8.1728 7.64344 7.92186L8.55953 6.21686Z" fill="#E0E0E0"/>
<path d="M7.63484 5.92637C7.96141 5.8284 8.4925 5.88684 8.85859 6.29418C9.77297 7.31684 8.79156 8.23981 8.25703 8.26215C7.54031 8.29309 7.45609 8.08684 7.05391 7.9545C6.73766 7.85137 6.5125 8.00606 6.2925 8.13496C6.17734 8.202 6.02609 8.10059 6.06047 7.97168C6.44031 6.59325 6.98344 6.12059 7.63484 5.92637Z" fill="#E8A631"/>
<path d="M11.6381 7.56316C11.786 7.35968 11.7808 7.10379 11.6264 6.99162C11.4721 6.87944 11.2271 6.95347 11.0792 7.15695C10.9313 7.36043 10.9365 7.61632 11.0909 7.7285C11.2452 7.84067 11.4902 7.76664 11.6381 7.56316Z" fill="#212121"/>
<path d="M10.3625 8.09026C10.0686 7.98198 8.83281 7.67089 7.95109 7.61933C7.17766 7.57464 6.66719 7.93386 6.64484 7.94245C6.61906 7.95276 6.59844 7.96823 6.58125 7.98542C6.71188 7.93558 6.85625 7.91151 7.03156 7.94933C7.23609 7.88745 7.54375 7.82386 7.91844 7.84964C8.80531 7.90979 10.6255 8.44433 10.6444 8.44948C10.6581 8.45292 10.9383 8.56292 10.9194 8.46667C10.9211 8.46839 10.9177 8.29479 10.3625 8.09026Z" fill="#424242"/>
</g>
</svg>
